<mxfile host="app.diagrams.net" modified="2024-03-04T12:35:20.835Z" agent="Mozilla/5.0 (Macintosh; Intel Mac OS X 10_15_7) AppleWebKit/605.1.15 (KHTML, like Gecko) Version/17.4 Safari/605.1.15" etag="7q_il2jcx8Sm-D5V0URP" version="24.0.1" type="github">
  <diagram id="R2lEEEUBdFMjLlhIrx00" name="Page-1">
    <mxGraphModel dx="1624" dy="811" grid="1" gridSize="10" guides="1" tooltips="1" connect="1" arrows="1" fold="1" page="1" pageScale="1" pageWidth="850" pageHeight="1100" math="0" shadow="0" extFonts="Permanent Marker^https://fonts.googleapis.com/css?family=Permanent+Marker">
      <root>
        <mxCell id="0" />
        <mxCell id="1" parent="0" />
        <mxCell id="n1HvHnsdzHOxatxT1gUo-6" style="edgeStyle=orthogonalEdgeStyle;rounded=0;orthogonalLoop=1;jettySize=auto;html=1;entryX=0;entryY=0.5;entryDx=0;entryDy=0;" edge="1" parent="1" source="n1HvHnsdzHOxatxT1gUo-2" target="n1HvHnsdzHOxatxT1gUo-5">
          <mxGeometry relative="1" as="geometry" />
        </mxCell>
        <mxCell id="n1HvHnsdzHOxatxT1gUo-27" value="" style="edgeStyle=orthogonalEdgeStyle;rounded=0;orthogonalLoop=1;jettySize=auto;html=1;" edge="1" parent="1" source="n1HvHnsdzHOxatxT1gUo-2">
          <mxGeometry relative="1" as="geometry">
            <mxPoint x="-5" y="350" as="targetPoint" />
          </mxGeometry>
        </mxCell>
        <mxCell id="n1HvHnsdzHOxatxT1gUo-35" style="edgeStyle=orthogonalEdgeStyle;rounded=0;orthogonalLoop=1;jettySize=auto;html=1;entryX=0.5;entryY=1;entryDx=0;entryDy=0;" edge="1" parent="1" source="n1HvHnsdzHOxatxT1gUo-2" target="n1HvHnsdzHOxatxT1gUo-28">
          <mxGeometry relative="1" as="geometry" />
        </mxCell>
        <mxCell id="n1HvHnsdzHOxatxT1gUo-2" value="Users&lt;div&gt;&lt;br&gt;&lt;/div&gt;" style="whiteSpace=wrap;html=1;align=center;" vertex="1" parent="1">
          <mxGeometry x="120" y="310" width="170" height="80" as="geometry" />
        </mxCell>
        <mxCell id="n1HvHnsdzHOxatxT1gUo-5" value="UserID&lt;div&gt;&lt;br&gt;&lt;/div&gt;" style="ellipse;whiteSpace=wrap;html=1;align=center;fontStyle=4;" vertex="1" parent="1">
          <mxGeometry x="330" y="170" width="100" height="40" as="geometry" />
        </mxCell>
        <mxCell id="n1HvHnsdzHOxatxT1gUo-29" style="edgeStyle=orthogonalEdgeStyle;rounded=0;orthogonalLoop=1;jettySize=auto;html=1;exitX=0;exitY=0.5;exitDx=0;exitDy=0;" edge="1" parent="1" source="n1HvHnsdzHOxatxT1gUo-10" target="n1HvHnsdzHOxatxT1gUo-28">
          <mxGeometry relative="1" as="geometry" />
        </mxCell>
        <mxCell id="n1HvHnsdzHOxatxT1gUo-10" value="Gender&lt;div&gt;&lt;br&gt;&lt;/div&gt;" style="ellipse;whiteSpace=wrap;html=1;align=center;" vertex="1" parent="1">
          <mxGeometry x="270" width="100" height="40" as="geometry" />
        </mxCell>
        <mxCell id="n1HvHnsdzHOxatxT1gUo-16" value="" style="edgeStyle=orthogonalEdgeStyle;rounded=0;orthogonalLoop=1;jettySize=auto;html=1;" edge="1" parent="1" source="n1HvHnsdzHOxatxT1gUo-13" target="n1HvHnsdzHOxatxT1gUo-15">
          <mxGeometry relative="1" as="geometry" />
        </mxCell>
        <mxCell id="n1HvHnsdzHOxatxT1gUo-18" value="" style="edgeStyle=orthogonalEdgeStyle;rounded=0;orthogonalLoop=1;jettySize=auto;html=1;" edge="1" parent="1" source="n1HvHnsdzHOxatxT1gUo-13" target="n1HvHnsdzHOxatxT1gUo-17">
          <mxGeometry relative="1" as="geometry" />
        </mxCell>
        <mxCell id="n1HvHnsdzHOxatxT1gUo-13" value="Name&lt;div&gt;&lt;br&gt;&lt;/div&gt;" style="ellipse;whiteSpace=wrap;html=1;align=center;" vertex="1" parent="1">
          <mxGeometry x="-70" y="77.5" width="140" height="40" as="geometry" />
        </mxCell>
        <mxCell id="n1HvHnsdzHOxatxT1gUo-15" value="FirstName&lt;div&gt;&lt;br&gt;&lt;/div&gt;" style="ellipse;whiteSpace=wrap;html=1;align=center;" vertex="1" parent="1">
          <mxGeometry x="-220" y="130" width="100" height="40" as="geometry" />
        </mxCell>
        <mxCell id="n1HvHnsdzHOxatxT1gUo-17" value="LastName" style="ellipse;whiteSpace=wrap;html=1;align=center;" vertex="1" parent="1">
          <mxGeometry x="-230" y="40" width="140" height="40" as="geometry" />
        </mxCell>
        <mxCell id="n1HvHnsdzHOxatxT1gUo-20" value="pincode&lt;div&gt;&lt;br&gt;&lt;/div&gt;" style="ellipse;whiteSpace=wrap;html=1;align=center;" vertex="1" parent="1">
          <mxGeometry x="350" y="50" width="90" height="40" as="geometry" />
        </mxCell>
        <mxCell id="n1HvHnsdzHOxatxT1gUo-22" value="PhoneNumber&lt;div&gt;&lt;br&gt;&lt;/div&gt;" style="ellipse;whiteSpace=wrap;html=1;align=center;" vertex="1" parent="1">
          <mxGeometry x="-30" y="10" width="100" height="40" as="geometry" />
        </mxCell>
        <mxCell id="n1HvHnsdzHOxatxT1gUo-24" value="State&lt;div&gt;&lt;br&gt;&lt;/div&gt;" style="ellipse;whiteSpace=wrap;html=1;align=center;dashed=1;" vertex="1" parent="1">
          <mxGeometry x="340" y="100" width="100" height="40" as="geometry" />
        </mxCell>
        <mxCell id="n1HvHnsdzHOxatxT1gUo-31" style="edgeStyle=orthogonalEdgeStyle;rounded=0;orthogonalLoop=1;jettySize=auto;html=1;exitX=0;exitY=0.5;exitDx=0;exitDy=0;entryX=1;entryY=0.5;entryDx=0;entryDy=0;" edge="1" parent="1" source="n1HvHnsdzHOxatxT1gUo-28" target="n1HvHnsdzHOxatxT1gUo-13">
          <mxGeometry relative="1" as="geometry" />
        </mxCell>
        <mxCell id="n1HvHnsdzHOxatxT1gUo-33" style="edgeStyle=orthogonalEdgeStyle;rounded=0;orthogonalLoop=1;jettySize=auto;html=1;entryX=0;entryY=0.5;entryDx=0;entryDy=0;" edge="1" parent="1" source="n1HvHnsdzHOxatxT1gUo-28" target="n1HvHnsdzHOxatxT1gUo-20">
          <mxGeometry relative="1" as="geometry" />
        </mxCell>
        <mxCell id="n1HvHnsdzHOxatxT1gUo-34" style="edgeStyle=orthogonalEdgeStyle;rounded=0;orthogonalLoop=1;jettySize=auto;html=1;entryX=0;entryY=0.5;entryDx=0;entryDy=0;" edge="1" parent="1" source="n1HvHnsdzHOxatxT1gUo-28" target="n1HvHnsdzHOxatxT1gUo-24">
          <mxGeometry relative="1" as="geometry" />
        </mxCell>
        <mxCell id="n1HvHnsdzHOxatxT1gUo-39" style="edgeStyle=orthogonalEdgeStyle;rounded=0;orthogonalLoop=1;jettySize=auto;html=1;exitX=0;exitY=1;exitDx=0;exitDy=0;" edge="1" parent="1" source="n1HvHnsdzHOxatxT1gUo-28" target="n1HvHnsdzHOxatxT1gUo-37">
          <mxGeometry relative="1" as="geometry" />
        </mxCell>
        <mxCell id="n1HvHnsdzHOxatxT1gUo-41" style="edgeStyle=orthogonalEdgeStyle;rounded=0;orthogonalLoop=1;jettySize=auto;html=1;exitX=0;exitY=1;exitDx=0;exitDy=0;entryX=1;entryY=0.5;entryDx=0;entryDy=0;" edge="1" parent="1" source="n1HvHnsdzHOxatxT1gUo-28" target="n1HvHnsdzHOxatxT1gUo-40">
          <mxGeometry relative="1" as="geometry" />
        </mxCell>
        <mxCell id="n1HvHnsdzHOxatxT1gUo-28" value="Credentials&lt;div&gt;&lt;br&gt;&lt;/div&gt;" style="ellipse;whiteSpace=wrap;html=1;align=center;" vertex="1" parent="1">
          <mxGeometry x="140" y="70" width="100" height="60" as="geometry" />
        </mxCell>
        <mxCell id="n1HvHnsdzHOxatxT1gUo-30" style="edgeStyle=orthogonalEdgeStyle;rounded=0;orthogonalLoop=1;jettySize=auto;html=1;exitX=1;exitY=0.5;exitDx=0;exitDy=0;entryX=0.423;entryY=-0.017;entryDx=0;entryDy=0;entryPerimeter=0;" edge="1" parent="1" source="n1HvHnsdzHOxatxT1gUo-22" target="n1HvHnsdzHOxatxT1gUo-28">
          <mxGeometry relative="1" as="geometry" />
        </mxCell>
        <mxCell id="n1HvHnsdzHOxatxT1gUo-37" value="DOB&lt;div&gt;&lt;br&gt;&lt;/div&gt;" style="ellipse;whiteSpace=wrap;html=1;align=center;" vertex="1" parent="1">
          <mxGeometry y="150" width="100" height="40" as="geometry" />
        </mxCell>
        <mxCell id="n1HvHnsdzHOxatxT1gUo-40" value="Age&lt;div&gt;&lt;br&gt;&lt;/div&gt;" style="ellipse;whiteSpace=wrap;html=1;align=center;dashed=1;" vertex="1" parent="1">
          <mxGeometry y="210" width="100" height="40" as="geometry" />
        </mxCell>
      </root>
    </mxGraphModel>
  </diagram>
</mxfile>
